# xmcd
#
# Track frame offsets: 
#        150
#        15047
#        41564
#        62230
#        81204
#        94804
#        111059
#        125450
#        145461
#        164246
#        180938
#
# Disc length: 2669 seconds
#
# Revision: 9
# Processed by: cddbd v1.5.2PL0 Copyright (c) Steve Scherf et al.
# Submitted via: ExactAudioCopyFreeDBPlugin 1.0
#
DISCID=8d0a6b0b
DTITLE=Kenny Chesney - Lucky Old Sun [CD 1)
DYEAR=2008
DGENRE=Country
TTITLE0=I'm Alive (featuring Dave Matthhews)
TTITLE1=Way Down Here
TTITLE2=Boats
TTITLE3=Everybody Wants To Go To Heaven (featuring The Wailers)
TTITLE4=Down The Road (featuring Mac McAnally)
TTITLE5=Spirit Of A Storm
TTITLE6=Ten With A Two
TTITLE7=The Life
TTITLE8=Key's In The Conch Shell
TTITLE9=Nowhere To Go, Nowhere To Be
TTITLE10=That Lucky Old Sun (featuring Willie Nelson)
EXTD=YEAR: 2008
EXTT0=
EXTT1=
EXTT2=
EXTT3=
EXTT4=
EXTT5=
EXTT6=
EXTT7=
EXTT8=
EXTT9=
EXTT10=
PLAYORDER=
